<svg width="37" height="36" viewBox="0 0 37 36" fill="none" xmlns="http://www.w3.org/2000/svg">
<g clip-path="url(#clip0_2684_632)">
<g filter="url(#filter0_d_2684_632)">
<path fill-rule="evenodd" clip-rule="evenodd" d="M19.3281 6L10.3281 13H3.32812V23H10.3281L19.3281 30V6Z" fill="white"/>
<path fill-rule="evenodd" clip-rule="evenodd" d="M29.8134 9.51472C32.0638 11.7652 33.3281 14.8174 33.3281 18C33.3281 21.1826 32.0638 24.2348 29.8134 26.4853C27.563 28.7357 24.5107 30 21.3281 30L21.3281 28C23.9803 28 26.5238 26.9464 28.3992 25.0711C30.2746 23.1957 31.3281 20.6522 31.3281 18C31.3281 15.3478 30.2746 12.8043 28.3992 10.9289C26.5238 9.05357 23.9803 8 21.3281 8L21.3281 6C24.5107 6 27.563 7.26428 29.8134 9.51472Z" fill="white"/>
<path d="M26.2779 22.9497C24.9651 24.2625 23.1846 25 21.3281 25L21.3281 11C23.1846 11 24.9651 11.7375 26.2779 13.0503C27.5906 14.363 28.3281 16.1435 28.3281 18C28.3281 19.8565 27.5906 21.637 26.2779 22.9497Z" fill="white"/>
</g>
</g>
<defs>
<filter id="filter0_d_2684_632" x="-4.67188" y="-2" width="50" height="44" filterUnits="userSpaceOnUse" color-interpolation-filters="sRGB">
<feFlood flood-opacity="0" result="BackgroundImageFix"/>
<feColorMatrix in="SourceAlpha" type="matrix" values="0 0 0 0 0 0 0 0 0 0 0 0 0 0 0 0 0 0 127 0" result="hardAlpha"/>
<feOffset dx="2" dy="2"/>
<feGaussianBlur stdDeviation="5"/>
<feComposite in2="hardAlpha" operator="out"/>
<feColorMatrix type="matrix" values="0 0 0 0 0 0 0 0 0 0 0 0 0 0 0 0 0 0 0.15 0"/>
<feBlend mode="normal" in2="BackgroundImageFix" result="effect1_dropShadow_2684_632"/>
<feBlend mode="normal" in="SourceGraphic" in2="effect1_dropShadow_2684_632" result="shape"/>
</filter>
<clipPath id="clip0_2684_632">
<rect width="36" height="36" fill="white" transform="translate(0.328125)"/>
</clipPath>
</defs>
</svg>
