<svg width="24" height="24" viewBox="0 0 24 24" fill="none" xmlns="http://www.w3.org/2000/svg">
<path fill-rule="evenodd" clip-rule="evenodd" d="M6.54194 15.7459C4.08498 13.289 4.08498 9.30548 6.54194 6.84852C8.99889 4.39156 12.9824 4.39156 15.4394 6.84852C17.8963 9.30548 17.8963 13.289 15.4394 15.7459C12.9824 18.2029 8.99889 18.2029 6.54194 15.7459ZM5.12772 5.4343C1.88972 8.67231 1.88972 13.9222 5.12772 17.1602C8.11608 20.1485 12.818 20.3789 16.0706 17.8514L19.7476 21.5284L21.2207 20.0553L17.5438 16.3784C20.0724 13.1258 19.8423 8.42304 16.8536 5.4343C13.6156 2.1963 8.36573 2.1963 5.12772 5.4343Z" fill="white"/>
</svg>
