<svg width="17" height="17" viewBox="0 0 17 17" fill="none" xmlns="http://www.w3.org/2000/svg">
<circle cx="8.5" cy="8.5" r="7" fill="$brand-color"/>
<path d="M6.5 5.5H8.99609C9.46777 5.5 9.875 5.59082 10.2178 5.77246C10.5605 5.9541 10.8213 6.20752 11 6.53271C11.1816 6.85498 11.2725 7.22559 11.2725 7.64453C11.2725 8.06934 11.1802 8.44434 10.9956 8.76953C10.814 9.0918 10.5488 9.34229 10.2002 9.521C9.85449 9.69971 9.44141 9.78906 8.96094 9.78906H7.81836V11.8633H6.5V5.5ZM8.75 8.72559C9.13086 8.72559 9.41943 8.62891 9.61572 8.43555C9.81494 8.23926 9.91309 7.97559 9.91016 7.64453C9.91309 7.31934 9.81494 7.06152 9.61572 6.87109C9.41943 6.68066 9.13086 6.58398 8.75 6.58105H7.81836V8.72559H8.75Z" fill="white"/>
</svg>
