<svg width="11" height="11" viewBox="0 0 11 11" fill="none" xmlns="http://www.w3.org/2000/svg">
<path d="M2.7487 10.0835C2.49661 10.0835 2.28082 9.99374 2.1013 9.81423C1.92179 9.63471 1.83203 9.41891 1.83203 9.16683V4.5835C1.83203 4.33141 1.92179 4.11561 2.1013 3.9361C2.28082 3.75659 2.49661 3.66683 2.7487 3.66683H3.20703V2.75016C3.20703 2.11614 3.43047 1.57568 3.87734 1.12881C4.32422 0.681934 4.86467 0.458496 5.4987 0.458496C6.13273 0.458496 6.67318 0.681934 7.12005 1.12881C7.56693 1.57568 7.79036 2.11614 7.79036 2.75016V3.66683H8.2487C8.50078 3.66683 8.71658 3.75659 8.89609 3.9361C9.07561 4.11561 9.16536 4.33141 9.16536 4.5835V9.16683C9.16536 9.41891 9.07561 9.63471 8.89609 9.81423C8.71658 9.99374 8.50078 10.0835 8.2487 10.0835H2.7487ZM2.7487 9.16683H8.2487V4.5835H2.7487V9.16683ZM4.1237 3.66683H6.8737V2.75016C6.8737 2.36822 6.74002 2.04357 6.47266 1.7762C6.20529 1.50884 5.88064 1.37516 5.4987 1.37516C5.11675 1.37516 4.7921 1.50884 4.52474 1.7762C4.25738 2.04357 4.1237 2.36822 4.1237 2.75016V3.66683Z" fill="#9D9D9D"/>
</svg>
