<svg width="36" height="36" viewBox="0 0 36 36" fill="none" xmlns="http://www.w3.org/2000/svg">
<rect x="5" y="29.4558" width="36" height="2" transform="rotate(-45 5 29.4558)" fill="white"/>
<path fill-rule="evenodd" clip-rule="evenodd" d="M14.0013 26.1121L19 30V21.1135L14.0013 26.1121ZM21 19.1135V25C22.8565 25 24.637 24.2625 25.9497 22.9497C27.2625 21.637 28 19.8565 28 18C28 16.4078 27.4576 14.8716 26.4751 13.6384L21 19.1135ZM25.0174 12.2676L21 16.285V11C22.4472 11 23.8482 11.4481 25.0174 12.2676ZM28.6059 11.5076C30.1455 13.3112 31 15.6115 31 18C31 20.6522 29.9464 23.1957 28.0711 25.0711C26.1957 26.9464 23.6522 28 21 28V30C24.1826 30 27.2348 28.7357 29.4853 26.4853C31.7357 24.2348 33 21.1826 33 18C33 15.0809 31.9364 12.2714 30.0237 10.0897L28.6059 11.5076ZM28.5844 8.70065L27.1614 10.1236C25.4116 8.75471 23.2447 8 21 8L21 6C23.7758 6 26.4524 6.96172 28.5844 8.70065ZM19 18.285L12.4103 24.8747L10 23H3V13H10L19 6V18.285Z" fill="white"/>
</svg>
