<svg width="16" height="17" viewBox="0 0 16 17" fill="none" xmlns="http://www.w3.org/2000/svg">
<circle cx="8" cy="8.5" r="7" fill="#1A6EFF"/>
<path d="M6 5.5H8.49609C8.96777 5.5 9.375 5.59082 9.71777 5.77246C10.0605 5.9541 10.3213 6.20752 10.5 6.53271C10.6816 6.85498 10.7725 7.22559 10.7725 7.64453C10.7725 8.06934 10.6802 8.44434 10.4956 8.76953C10.314 9.0918 10.0488 9.34229 9.7002 9.521C9.35449 9.69971 8.94141 9.78906 8.46094 9.78906H7.31836V11.8633H6V5.5ZM8.25 8.72559C8.63086 8.72559 8.91943 8.62891 9.11572 8.43555C9.31494 8.23926 9.41309 7.97559 9.41016 7.64453C9.41309 7.31934 9.31494 7.06152 9.11572 6.87109C8.91943 6.68066 8.63086 6.58398 8.25 6.58105H7.31836V8.72559H8.25Z" fill="white"/>
</svg>
