<svg width="48" height="20" viewBox="0 0 48 20" fill="none" xmlns="http://www.w3.org/2000/svg">
<rect x="0.0234375" width="47" height="20" rx="4" fill="#FF3064"/>
<path d="M13.377 6.86914C13.3737 7.44857 13.359 7.95312 13.333 8.38281C13.307 8.80924 13.2435 9.29753 13.1426 9.84766H14.3633V10.7266H10.8574V14.3789H9.76367V10.7266H6.31641V9.84766H12.0391C12.1465 9.3138 12.2148 8.82878 12.2441 8.39258C12.2767 7.95638 12.293 7.47786 12.293 6.95703H7.26367V6.07812H13.377V6.86914ZM22.5762 14.3691H21.5312V9.84766H20.5938V13.9395H19.5684V5.69727H20.5938V8.94922H21.5312V5.54102H22.5762V14.3691ZM15.2324 6.49805H18.6992V12.0938H15.2324V6.49805ZM17.6836 11.2344V7.35742H16.248V11.2344H17.6836ZM30.5156 9.05664H31.873V9.95508H30.5156V14.3691H29.4414V5.54102H30.5156V9.05664ZM23.5527 6.89844H25.6426V5.66797H26.7266V6.89844H28.7578V7.76758H23.5527V6.89844ZM23.9629 10.4238C23.9596 10.0234 24.054 9.66536 24.2461 9.34961C24.4382 9.0306 24.7035 8.7832 25.042 8.60742C25.3805 8.43164 25.763 8.34375 26.1895 8.34375C26.6094 8.34375 26.987 8.43164 27.3223 8.60742C27.6576 8.7832 27.9212 9.0306 28.1133 9.34961C28.3086 9.66536 28.4062 10.0234 28.4062 10.4238C28.4062 10.8242 28.3086 11.1823 28.1133 11.498C27.9212 11.8105 27.6576 12.0547 27.3223 12.2305C26.987 12.4062 26.6094 12.4941 26.1895 12.4941C25.763 12.4941 25.3805 12.4062 25.042 12.2305C24.7035 12.0547 24.4382 11.8105 24.2461 11.498C24.054 11.1823 23.9596 10.8242 23.9629 10.4238ZM24.998 10.4238C24.998 10.6582 25.0485 10.8649 25.1494 11.0439C25.2503 11.2197 25.3903 11.3564 25.5693 11.4541C25.7516 11.5485 25.9583 11.5957 26.1895 11.5957C26.4141 11.5957 26.6159 11.5485 26.7949 11.4541C26.974 11.3597 27.1139 11.223 27.2148 11.0439C27.3158 10.8649 27.3678 10.6582 27.3711 10.4238C27.3678 10.1895 27.3141 9.98275 27.21 9.80371C27.109 9.62142 26.9691 9.48145 26.79 9.38379C26.6143 9.28288 26.4141 9.23242 26.1895 9.23242C25.9583 9.23242 25.7516 9.28288 25.5693 9.38379C25.3903 9.48145 25.2503 9.62142 25.1494 9.80371C25.0485 9.98275 24.998 10.1895 24.998 10.4238ZM39.6172 14.3691H38.5234V5.54102H39.6172V14.3691ZM32.3027 11.9375C33.4421 11.3971 34.2965 10.751 34.8662 9.99902C35.4391 9.24707 35.776 8.36003 35.877 7.33789H32.752V6.47852H36.9805C36.9805 7.88151 36.6631 9.11198 36.0283 10.1699C35.3936 11.2279 34.3405 12.1068 32.8691 12.8066L32.3027 11.9375Z" fill="white"/>
</svg>
