<svg width="28" height="28" viewBox="0 0 28 28" fill="none" xmlns="http://www.w3.org/2000/svg">
<path fill-rule="evenodd" clip-rule="evenodd" d="M6.5313 16.5175C8.51239 14.5364 11.1993 13.4235 14.001 13.4235C16.8027 13.4235 19.4896 14.5364 21.4707 16.5175C23.4518 18.4986 24.5647 21.1855 24.5647 23.9872H22.2314C22.2314 21.8044 21.3643 19.7109 19.8208 18.1674C18.2773 16.6239 16.1838 15.7568 14.001 15.7568C11.8182 15.7568 9.72472 16.6239 8.18122 18.1674C6.63772 19.7109 5.77059 21.8044 5.77059 23.9872H3.43726C3.43726 21.1855 4.55022 18.4986 6.5313 16.5175Z" fill="#A2A2A2"/>
<path fill-rule="evenodd" clip-rule="evenodd" d="M14.0001 3.829C12.4859 3.829 11.2584 5.05649 11.2584 6.57067C11.2584 8.08485 12.4859 9.31234 14.0001 9.31234C15.5143 9.31234 16.7418 8.08485 16.7418 6.57067C16.7418 5.05649 15.5143 3.829 14.0001 3.829ZM9.15845 6.57067C9.15845 3.89669 11.3261 1.729 14.0001 1.729C16.6741 1.729 18.8418 3.89669 18.8418 6.57067C18.8418 9.24465 16.6741 11.4123 14.0001 11.4123C11.3261 11.4123 9.15845 9.24465 9.15845 6.57067Z" fill="#A2A2A2"/>
</svg>
