<svg width="20" height="20" viewBox="0 0 20 20" fill="none" xmlns="http://www.w3.org/2000/svg">
<path fill-rule="evenodd" clip-rule="evenodd" d="M3 3L8 3L8 4.5L3 4.5L3 3Z" fill="white"/>
<path fill-rule="evenodd" clip-rule="evenodd" d="M4.5 3L4.5 8L3 8L3 3L4.5 3Z" fill="white"/>
<path fill-rule="evenodd" clip-rule="evenodd" d="M17 3L17 8L15.5 8L15.5 3L17 3Z" fill="white"/>
<path fill-rule="evenodd" clip-rule="evenodd" d="M17 4.5L12 4.5L12 3L17 3L17 4.5Z" fill="white"/>
<path fill-rule="evenodd" clip-rule="evenodd" d="M3 17L3 12L4.5 12L4.5 17L3 17Z" fill="white"/>
<path fill-rule="evenodd" clip-rule="evenodd" d="M3 15.5L8 15.5L8 17L3 17L3 15.5Z" fill="white"/>
<path fill-rule="evenodd" clip-rule="evenodd" d="M17 17L12 17L12 15.5L17 15.5L17 17Z" fill="white"/>
<path fill-rule="evenodd" clip-rule="evenodd" d="M15.5 17L15.5 12L17 12L17 17L15.5 17Z" fill="white"/>
</svg>
