<svg width="18" height="18" viewBox="0 0 18 18" fill="none" xmlns="http://www.w3.org/2000/svg">
<circle cx="8.99973" cy="8.99876" r="5.22727" stroke="#A2A2A2"/>
<path d="M9.62783 10.384H8.3662L8.23806 5.38672H9.75596L9.62783 10.384ZM8.17893 11.7836C8.17564 11.6357 8.21014 11.4994 8.28242 11.3745C8.35798 11.2464 8.45984 11.1462 8.58797 11.0739C8.7161 11.0016 8.85574 10.9655 9.00687 10.9655C9.15143 10.9655 9.28614 11.0016 9.41099 11.0739C9.53583 11.1462 9.63604 11.2464 9.71161 11.3745C9.78718 11.4994 9.82496 11.6357 9.82496 11.7836C9.82496 11.9347 9.78718 12.0743 9.71161 12.2025C9.63604 12.3273 9.53583 12.4275 9.41099 12.5031C9.28614 12.5754 9.15143 12.6115 9.00687 12.6115C8.85574 12.6115 8.7161 12.5754 8.58797 12.5031C8.45984 12.4275 8.35798 12.3273 8.28242 12.2025C8.21014 12.0743 8.17564 11.9347 8.17893 11.7836Z" fill="#A2A2A2"/>
</svg>
