<svg width="335" height="48" viewBox="0 0 335 48" fill="none" xmlns="http://www.w3.org/2000/svg">
<rect width="335" height="48" rx="5" fill="#505050"/>
<path fill-rule="evenodd" clip-rule="evenodd" d="M12.982 18.7L20.0005 25.0845L27.0189 18.7L12.982 18.7ZM11.7 29.3V19.8319L19.1957 26.6506C19.6367 27.0517 20.3643 27.0517 20.8052 26.6506L28.3 19.8328V29.3H11.7ZM28.7524 17H29C29.5523 17 30 17.4477 30 18V30C30 30.5523 29.5523 31 29 31H11C10.4477 31 10 30.5523 10 30V18C10 17.4477 10.4477 17 11 17H11.2486H28.7524Z" fill="white"/>
<path d="M121.508 31.4062H119.758V17.2656H121.508V31.4062ZM110.211 23.2812C110.211 22.2865 110.367 21.4115 110.68 20.6562C110.992 19.901 111.427 19.3203 111.984 18.9141C112.547 18.5026 113.185 18.2969 113.898 18.2969C114.602 18.2969 115.232 18.5026 115.789 18.9141C116.352 19.3203 116.792 19.901 117.109 20.6562C117.427 21.4115 117.586 22.2865 117.586 23.2812C117.586 24.2865 117.427 25.1667 117.109 25.9219C116.792 26.6771 116.352 27.2604 115.789 27.6719C115.232 28.0781 114.602 28.2812 113.898 28.2812C113.185 28.2812 112.547 28.0781 111.984 27.6719C111.427 27.2604 110.992 26.6771 110.68 25.9219C110.367 25.1667 110.211 24.2865 110.211 23.2812ZM111.883 23.2812C111.883 23.9948 111.966 24.6094 112.133 25.125C112.305 25.6406 112.542 26.0339 112.844 26.3047C113.146 26.5755 113.497 26.7135 113.898 26.7188C114.294 26.7135 114.643 26.5755 114.945 26.3047C115.247 26.0339 115.482 25.6406 115.648 25.125C115.815 24.6094 115.898 23.9948 115.898 23.2812C115.898 22.5729 115.815 21.9635 115.648 21.4531C115.482 20.9375 115.247 20.5443 114.945 20.2734C114.643 19.9974 114.294 19.8594 113.898 19.8594C113.497 19.8594 113.146 19.9974 112.844 20.2734C112.542 20.5443 112.305 20.9375 112.133 21.4531C111.966 21.9635 111.883 22.5729 111.883 23.2812ZM129.57 22.4688H131.211V17.5156H132.867V30.7031H131.211V23.875H129.57V27.75H124.023V18.7969H129.57V22.4688ZM127.945 26.375V20.1719H125.648V26.375H127.945ZM134.102 17.2656H135.773V31.3906H134.102V17.2656ZM141.414 17.7188C142.122 17.7188 142.76 17.8568 143.328 18.1328C143.896 18.4036 144.341 18.7812 144.664 19.2656C144.992 19.75 145.159 20.2969 145.164 20.9062C145.159 21.5208 144.992 22.0703 144.664 22.5547C144.341 23.0339 143.896 23.4115 143.328 23.6875C142.76 23.9583 142.122 24.0938 141.414 24.0938C140.701 24.0938 140.057 23.9583 139.484 23.6875C138.917 23.4115 138.471 23.0339 138.148 22.5547C137.826 22.0703 137.664 21.5208 137.664 20.9062C137.664 20.2969 137.826 19.75 138.148 19.2656C138.471 18.7812 138.917 18.4036 139.484 18.1328C140.057 17.8568 140.701 17.7188 141.414 17.7188ZM139.352 20.9062C139.352 21.2656 139.44 21.5807 139.617 21.8516C139.794 22.1172 140.039 22.3229 140.352 22.4688C140.664 22.6146 141.018 22.6875 141.414 22.6875C141.81 22.6875 142.161 22.6146 142.469 22.4688C142.781 22.3229 143.026 22.1172 143.203 21.8516C143.385 21.5807 143.477 21.2656 143.477 20.9062C143.477 20.5573 143.385 20.25 143.203 19.9844C143.026 19.7188 142.781 19.5156 142.469 19.375C142.161 19.2292 141.81 19.1562 141.414 19.1562C141.018 19.1562 140.664 19.2292 140.352 19.375C140.039 19.5156 139.794 19.7188 139.617 19.9844C139.44 20.25 139.352 20.5573 139.352 20.9062ZM139.805 25.0156H149.18V28.7031H141.539V29.8438H149.602V31.2188H139.836V27.4219H147.445V26.375H139.805V25.0156ZM147.43 17.2656H149.18V24.4062H147.43V17.2656ZM164.148 29.75H151.242V28.3125H156.805V26.0156H152.773V21.3906H160.898V19.6406H152.742V18.2344H162.617V22.7656H154.508V24.5938H162.945V26.0156H158.523V28.3125H164.148V29.75ZM181.055 31.3906H179.398V17.2656H181.055V31.3906ZM168.727 27.1719C170.159 26.3229 171.237 25.3438 171.961 24.2344C172.69 23.125 173.122 21.8438 173.258 20.3906H169.477V18.9844H174.977C174.977 19.7135 174.927 20.4062 174.828 21.0625H176.477V17.6094H178.133V30.7188H176.477V26H174.273V24.5781H176.477V22.4844H174.531C174.182 23.6979 173.617 24.7995 172.836 25.7891C172.06 26.7734 171.029 27.6458 169.742 28.4062L168.727 27.1719ZM195.57 25.6094H182.695V24.2031H188.258V22.2344H189.977V24.2031H195.57V25.6094ZM183.398 21.6875C184.346 21.5677 185.185 21.3281 185.914 20.9688C186.648 20.6042 187.216 20.1641 187.617 19.6484C188.023 19.1328 188.227 18.5938 188.227 18.0312V17.5H189.992V18.0312C189.992 18.6042 190.193 19.1484 190.594 19.6641C190.995 20.1797 191.562 20.6172 192.297 20.9766C193.031 21.3307 193.878 21.5677 194.836 21.6875L194.164 23.0469C193.008 22.8698 191.987 22.5312 191.102 22.0312C190.216 21.526 189.549 20.9036 189.102 20.1641C188.648 20.9036 187.979 21.526 187.094 22.0312C186.208 22.5312 185.185 22.8698 184.023 23.0469L183.398 21.6875ZM184.117 26.7344H193.992V31.3906H192.258V28.0938H184.117V26.7344ZM207.586 22.8906H209.758V24.3281H207.586V31.3906H205.867V17.2656H207.586V22.8906ZM196.445 19.4375H199.789V17.4688H201.523V19.4375H204.773V20.8281H196.445V19.4375ZM197.102 25.0781C197.096 24.4375 197.247 23.8646 197.555 23.3594C197.862 22.849 198.286 22.4531 198.828 22.1719C199.37 21.8906 199.982 21.75 200.664 21.75C201.336 21.75 201.94 21.8906 202.477 22.1719C203.013 22.4531 203.435 22.849 203.742 23.3594C204.055 23.8646 204.211 24.4375 204.211 25.0781C204.211 25.7188 204.055 26.2917 203.742 26.7969C203.435 27.2969 203.013 27.6875 202.477 27.9688C201.94 28.25 201.336 28.3906 200.664 28.3906C199.982 28.3906 199.37 28.25 198.828 27.9688C198.286 27.6875 197.862 27.2969 197.555 26.7969C197.247 26.2917 197.096 25.7188 197.102 25.0781ZM198.758 25.0781C198.758 25.4531 198.839 25.7839 199 26.0703C199.161 26.3516 199.385 26.5703 199.672 26.7266C199.964 26.8776 200.294 26.9531 200.664 26.9531C201.023 26.9531 201.346 26.8776 201.633 26.7266C201.919 26.5755 202.143 26.3568 202.305 26.0703C202.466 25.7839 202.549 25.4531 202.555 25.0781C202.549 24.7031 202.464 24.3724 202.297 24.0859C202.135 23.7943 201.911 23.5703 201.625 23.4141C201.344 23.2526 201.023 23.1719 200.664 23.1719C200.294 23.1719 199.964 23.2526 199.672 23.4141C199.385 23.5703 199.161 23.7943 199 24.0859C198.839 24.3724 198.758 24.7031 198.758 25.0781ZM222.148 31.3906H220.398V17.2656H222.148V31.3906ZM210.445 27.5C212.268 26.6354 213.635 25.6016 214.547 24.3984C215.464 23.1953 216.003 21.776 216.164 20.1406H211.164V18.7656H217.93C217.93 21.0104 217.422 22.9792 216.406 24.6719C215.391 26.3646 213.706 27.7708 211.352 28.8906L210.445 27.5Z" fill="white"/>
</svg>
