<svg width="335" height="48" viewBox="0 0 335 48" fill="none" xmlns="http://www.w3.org/2000/svg">
<rect width="335" height="48" rx="5" fill="#02C759"/>
<path d="M22.6777 24.525L17.1116 16.5H12.5V31.5H17.3347V23.475L22.8884 31.5H27.5V16.5H22.6777V24.525Z" fill="white"/>
<path d="M112.312 26.3203C113.016 26.3099 113.672 26.276 114.281 26.2188C114.896 26.1562 115.521 26.0573 116.156 25.9219L116.422 27.5938C115.646 27.7656 114.883 27.8828 114.133 27.9453C113.388 28.0026 112.539 28.0312 111.586 28.0312H111.312H110.312V18.5781H112.312V26.3203ZM114.312 21.7188H117.156V17.4844H119.047V30.8125H117.156V23.3281H114.312V21.7188ZM120.219 17.2188H122.094V31.4375H120.219V17.2188ZM135.5 31.4688H133.484V17.2188H135.5V31.4688ZM124.016 23.2812C124.016 22.2656 124.174 21.375 124.492 20.6094C124.815 19.8438 125.26 19.2552 125.828 18.8438C126.401 18.4271 127.052 18.2188 127.781 18.2188C128.495 18.2188 129.133 18.4271 129.695 18.8438C130.263 19.2552 130.708 19.8438 131.031 20.6094C131.354 21.375 131.516 22.2656 131.516 23.2812C131.516 24.3021 131.354 25.1979 131.031 25.9688C130.708 26.7344 130.263 27.3255 129.695 27.7422C129.133 28.1536 128.495 28.3594 127.781 28.3594C127.052 28.3594 126.401 28.1536 125.828 27.7422C125.26 27.3255 124.815 26.7344 124.492 25.9688C124.174 25.1979 124.016 24.3021 124.016 23.2812ZM125.938 23.2812C125.938 23.974 126.013 24.5677 126.164 25.0625C126.315 25.5521 126.529 25.9245 126.805 26.1797C127.086 26.4297 127.411 26.5521 127.781 26.5469C128.141 26.5521 128.456 26.4297 128.727 26.1797C129.003 25.9245 129.216 25.5521 129.367 25.0625C129.518 24.5677 129.594 23.974 129.594 23.2812C129.594 22.5885 129.518 21.9974 129.367 21.5078C129.216 21.0182 129.003 20.6484 128.727 20.3984C128.456 20.1432 128.141 20.0156 127.781 20.0156C127.411 20.0156 127.086 20.1432 126.805 20.3984C126.529 20.6484 126.315 21.0182 126.164 21.5078C126.013 21.9974 125.938 22.5885 125.938 23.2812ZM149.422 31.4688H147.453V23.8438H144.812V28.0938H137.953V18.3125H139.938V21.7656H142.859V18.3125H144.812V22.2344H147.453V17.2188H149.422V31.4688ZM142.859 26.5V23.3281H139.938V26.5H142.859ZM164.266 29.8594H151.25V28.2188H156.734V26.0781H152.75V21.2969H160.797V19.7344H152.734V18.1406H162.766V22.8594H154.75V24.4531H163.094V26.0781H158.719V28.2188H164.266V29.8594ZM181.094 31.4375H179.219V17.2188H181.094V31.4375ZM168.547 27.0781C169.964 26.2448 171.018 25.2995 171.711 24.2422C172.409 23.1797 172.828 21.9375 172.969 20.5156H169.375V18.9062H174.953C174.953 19.599 174.909 20.2865 174.82 20.9688H176.234V17.5312H178.125V30.8125H176.234V26.125H174.219V24.5156H176.234V22.5781H174.492C174.148 23.7917 173.589 24.888 172.812 25.8672C172.042 26.8411 171.01 27.7135 169.719 28.4844L168.547 27.0781ZM195.562 25.7344H182.594V24.1406H188.078V22.25H190.047V24.1406H195.562V25.7344ZM183.266 21.5469C184.276 21.4167 185.141 21.1693 185.859 20.8047C186.578 20.4401 187.12 20.0052 187.484 19.5C187.854 18.9948 188.042 18.4688 188.047 17.9219V17.4531H190.078V17.9219C190.073 18.4896 190.25 19.026 190.609 19.5312C190.974 20.0312 191.516 20.4609 192.234 20.8203C192.958 21.1745 193.839 21.4167 194.875 21.5469L194.109 23.0938C192.917 22.9167 191.885 22.5885 191.016 22.1094C190.151 21.625 189.492 21.0234 189.039 20.3047C188.581 21.0234 187.917 21.625 187.047 22.1094C186.177 22.5938 185.151 22.9219 183.969 23.0938L183.266 21.5469ZM184.031 26.7344H193.984V31.4375H192V28.2812H184.031V26.7344ZM207.641 22.7812H209.734V24.4219H207.641V31.4375H205.672V17.2188H207.641V22.7812ZM196.344 19.3438H199.562V17.4375H201.562V19.3438H204.703V20.9375H196.344V19.3438ZM196.922 25.125C196.922 24.474 197.078 23.8906 197.391 23.375C197.703 22.8594 198.135 22.4583 198.688 22.1719C199.245 21.8802 199.87 21.7344 200.562 21.7344C201.245 21.7344 201.862 21.8802 202.414 22.1719C202.966 22.4583 203.398 22.8594 203.711 23.375C204.029 23.8906 204.188 24.474 204.188 25.125C204.188 25.776 204.029 26.3594 203.711 26.875C203.398 27.3854 202.966 27.7865 202.414 28.0781C201.862 28.3698 201.245 28.5156 200.562 28.5156C199.87 28.5156 199.245 28.3698 198.688 28.0781C198.135 27.7865 197.703 27.3854 197.391 26.875C197.078 26.3594 196.922 25.776 196.922 25.125ZM198.828 25.125C198.828 25.4844 198.901 25.7969 199.047 26.0625C199.198 26.3281 199.404 26.5312 199.664 26.6719C199.924 26.8125 200.224 26.8802 200.562 26.875C200.896 26.8802 201.193 26.8125 201.453 26.6719C201.714 26.5312 201.917 26.3281 202.062 26.0625C202.208 25.7969 202.281 25.4844 202.281 25.125C202.281 24.7656 202.208 24.4531 202.062 24.1875C201.917 23.9219 201.714 23.7161 201.453 23.5703C201.193 23.4245 200.896 23.349 200.562 23.3438C200.224 23.349 199.924 23.4245 199.664 23.5703C199.404 23.7161 199.198 23.9219 199.047 24.1875C198.901 24.4531 198.828 24.7656 198.828 25.125ZM222.203 31.4375H220.188V17.2188H222.203V31.4375ZM210.297 27.4062C211.51 26.8333 212.51 26.1953 213.297 25.4922C214.089 24.7891 214.693 24.0104 215.109 23.1562C215.531 22.2969 215.797 21.3333 215.906 20.2656H211.062V18.7031H217.938C217.932 20.224 217.727 21.6068 217.32 22.8516C216.914 24.0964 216.224 25.2396 215.25 26.2812C214.281 27.3229 212.979 28.2292 211.344 29L210.297 27.4062Z" fill="black"/>
</svg>
