<svg width="22" height="23" viewBox="0 0 22 23" fill="none" xmlns="http://www.w3.org/2000/svg">
<circle cx="11" cy="11.4844" r="7" fill="white"/>
<path d="M11.7672 13.178H10.2252L10.0686 7.07031H11.9238L11.7672 13.178ZM9.99636 14.8887C9.99234 14.708 10.0345 14.5413 10.1228 14.3888C10.2152 14.2321 10.3397 14.1097 10.4963 14.0213C10.6529 13.933 10.8236 13.8888 11.0083 13.8888C11.185 13.8888 11.3496 13.933 11.5022 14.0213C11.6548 14.1097 11.7773 14.2321 11.8696 14.3888C11.962 14.5413 12.0082 14.708 12.0082 14.8887C12.0082 15.0734 11.962 15.2441 11.8696 15.4007C11.7773 15.5533 11.6548 15.6758 11.5022 15.7681C11.3496 15.8565 11.185 15.9006 11.0083 15.9006C10.8236 15.9006 10.6529 15.8565 10.4963 15.7681C10.3397 15.6758 10.2152 15.5533 10.1228 15.4007C10.0345 15.2441 9.99234 15.0734 9.99636 14.8887Z" fill="#2C2C2C"/>
</svg>
