<svg width="20" height="20" viewBox="0 0 20 20" fill="none" xmlns="http://www.w3.org/2000/svg">
<g clip-path="url(#clip0_2773_12609)">
<path d="M9.16893 0.77544C9.61981 0.299462 10.3776 0.299463 10.8285 0.775441L12.0144 2.02738C12.281 2.30888 12.6721 2.436 13.0532 2.36506L14.7482 2.04959C15.3926 1.92964 16.0057 2.37524 16.0908 3.02545L16.3147 4.73564C16.365 5.12018 16.6067 5.453 16.9567 5.61972L18.5133 6.3612C19.1052 6.64311 19.3393 7.3641 19.0262 7.94018L18.2025 9.4554C18.0173 9.7961 18.0173 10.2075 18.2025 10.5482L19.0262 12.0634C19.3393 12.6395 19.1052 13.3605 18.5133 13.6424L16.9567 14.3839C16.6067 14.5506 16.365 14.8834 16.3147 15.2679L16.0908 16.9781C16.0057 17.6283 15.3926 18.0739 14.7482 17.954L13.0532 17.6385C12.6721 17.5676 12.281 17.6947 12.0144 17.9762L10.8285 19.2281C10.3776 19.7041 9.61981 19.7041 9.16893 19.2281L7.98302 17.9762C7.71636 17.6947 7.32528 17.5676 6.94416 17.6385L5.24918 17.954C4.60476 18.0739 3.9917 17.6283 3.90659 16.9781L3.68272 15.2679C3.63239 14.8834 3.39068 14.5506 3.04067 14.3839L1.48405 13.6424C0.892229 13.3605 0.658063 12.6395 0.971225 12.0634L1.79491 10.5482C1.98012 10.2075 1.98012 9.7961 1.79491 9.4554L0.971225 7.94018C0.658063 7.36411 0.89223 6.64311 1.48405 6.3612L3.04067 5.61972C3.39068 5.453 3.63239 5.12018 3.68272 4.73564L3.90659 3.02545C3.9917 2.37524 4.60476 1.92964 5.24918 2.04959L6.94416 2.36506C7.32528 2.436 7.71636 2.30888 7.98302 2.02737L9.16893 0.77544Z" fill="url(#paint0_linear_2773_12609)"/>
<path fill-rule="evenodd" clip-rule="evenodd" d="M14.1825 7.97193L9.24608 12.9084L6.07031 9.73264L6.9441 8.85885L9.24608 11.1608L13.3088 7.09814L14.1825 7.97193Z" fill="white"/>
</g>
<defs>
<linearGradient id="paint0_linear_2773_12609" x1="9.9987" y1="0.418457" x2="9.9987" y2="19.5851" gradientUnits="userSpaceOnUse">
<stop stop-color="#1A6EFF"/>
<stop offset="1" stop-color="#0055E9"/>
</linearGradient>
<clipPath id="clip0_2773_12609">
<rect width="20" height="20" fill="white"/>
</clipPath>
</defs>
</svg>
