<svg width="36" height="36" viewBox="0 0 36 36" fill="none" xmlns="http://www.w3.org/2000/svg">
<g clip-path="url(#clip0_1096_8019)">
<g filter="url(#filter0_d_1096_8019)">
<path fill-rule="evenodd" clip-rule="evenodd" d="M19 6L10 13H3V23H10L19 30V6Z" fill="white"/>
<path fill-rule="evenodd" clip-rule="evenodd" d="M29.4853 9.51472C31.7357 11.7652 33 14.8174 33 18C33 21.1826 31.7357 24.2348 29.4853 26.4853C27.2348 28.7357 24.1826 30 21 30L21 28C23.6522 28 26.1957 26.9464 28.0711 25.0711C29.9464 23.1957 31 20.6522 31 18C31 15.3478 29.9464 12.8043 28.0711 10.9289C26.1957 9.05357 23.6522 8 21 8L21 6C24.1826 6 27.2348 7.26428 29.4853 9.51472Z" fill="white"/>
<path d="M25.9497 22.9497C24.637 24.2625 22.8565 25 21 25L21 11C22.8565 11 24.637 11.7375 25.9497 13.0503C27.2625 14.363 28 16.1435 28 18C28 19.8565 27.2625 21.637 25.9497 22.9497Z" fill="white"/>
</g>
</g>
<defs>
<filter id="filter0_d_1096_8019" x="-5" y="-2" width="50" height="44" filterUnits="userSpaceOnUse" color-interpolation-filters="sRGB">
<feFlood flood-opacity="0" result="BackgroundImageFix"/>
<feColorMatrix in="SourceAlpha" type="matrix" values="0 0 0 0 0 0 0 0 0 0 0 0 0 0 0 0 0 0 127 0" result="hardAlpha"/>
<feOffset dx="2" dy="2"/>
<feGaussianBlur stdDeviation="5"/>
<feComposite in2="hardAlpha" operator="out"/>
<feColorMatrix type="matrix" values="0 0 0 0 0 0 0 0 0 0 0 0 0 0 0 0 0 0 0.15 0"/>
<feBlend mode="normal" in2="BackgroundImageFix" result="effect1_dropShadow_1096_8019"/>
<feBlend mode="normal" in="SourceGraphic" in2="effect1_dropShadow_1096_8019" result="shape"/>
</filter>
<clipPath id="clip0_1096_8019">
<rect width="36" height="36" fill="white"/>
</clipPath>
</defs>
</svg>
