<svg width="335" height="48" viewBox="0 0 335 48" fill="none" xmlns="http://www.w3.org/2000/svg">
<rect width="335" height="48" rx="5" fill="#FEE500"/>
<path fill-rule="evenodd" clip-rule="evenodd" d="M20 29.8762C24.9263 29.8762 28.9199 26.6814 28.9199 22.7403C28.9199 18.7992 24.9263 15.6044 20 15.6044C15.0737 15.6044 11.0801 18.7992 11.0801 22.7403C11.0801 25.1555 12.5799 27.2905 14.8752 28.5817L14.39 32.0989C14.3669 32.2663 14.549 32.3851 14.6929 32.2966L18.7429 29.8059C19.1536 29.8523 19.5733 29.8762 20 29.8762Z" fill="#181600"/>
<path d="M117.188 18.5781C117.182 20.1875 117.005 21.6198 116.656 22.875C116.312 24.1302 115.674 25.2995 114.742 26.3828C113.81 27.4661 112.495 28.4323 110.797 29.2812L109.703 27.7812C110.87 27.2031 111.823 26.5807 112.562 25.9141C113.307 25.2422 113.885 24.5052 114.297 23.7031L110.094 24.0938L109.844 22.3906L114.898 22.0859C115.049 21.4714 115.148 20.8333 115.195 20.1719H110.594V18.5781H117.188ZM118.984 17.2188H120.984V22.6719H123V24.3125H120.984V31.4062H118.984V17.2188ZM131.016 18.5781C131.01 20.1875 130.833 21.6198 130.484 22.875C130.141 24.1302 129.503 25.2995 128.57 26.3828C127.638 27.4661 126.323 28.4323 124.625 29.2812L123.531 27.7812C124.698 27.2031 125.651 26.5807 126.391 25.9141C127.135 25.2422 127.714 24.5052 128.125 23.7031L123.922 24.0938L123.672 22.3906L128.727 22.0859C128.878 21.4714 128.977 20.8333 129.023 20.1719H124.422V18.5781H131.016ZM132.812 17.2188H134.812V22.6719H136.828V24.3125H134.812V31.4062H132.812V17.2188ZM143.906 17.9531C144.922 17.9531 145.836 18.1146 146.648 18.4375C147.461 18.7604 148.099 19.2188 148.562 19.8125C149.031 20.401 149.266 21.0781 149.266 21.8438C149.266 22.5469 149.078 23.1745 148.703 23.7266C148.333 24.2734 147.818 24.7188 147.156 25.0625C146.5 25.401 145.745 25.6172 144.891 25.7109V28.1406H150.438V29.7812H137.422V28.1406H142.906V25.7109C142.057 25.612 141.305 25.3932 140.648 25.0547C139.992 24.7109 139.479 24.2656 139.109 23.7188C138.745 23.1667 138.562 22.5417 138.562 21.8438C138.562 21.0781 138.794 20.401 139.258 19.8125C139.721 19.2188 140.357 18.7604 141.164 18.4375C141.977 18.1146 142.891 17.9531 143.906 17.9531ZM140.531 21.8438C140.531 22.3333 140.672 22.7552 140.953 23.1094C141.24 23.4583 141.635 23.724 142.141 23.9062C142.651 24.0885 143.24 24.1823 143.906 24.1875C144.578 24.1823 145.167 24.0885 145.672 23.9062C146.182 23.724 146.581 23.4583 146.867 23.1094C147.154 22.7552 147.297 22.3333 147.297 21.8438C147.297 21.375 147.154 20.9688 146.867 20.625C146.581 20.276 146.182 20.0104 145.672 19.8281C145.161 19.6406 144.573 19.5469 143.906 19.5469C143.245 19.5469 142.659 19.6406 142.148 19.8281C141.638 20.0104 141.24 20.276 140.953 20.625C140.672 20.9688 140.531 21.375 140.531 21.8438ZM164.266 29.8594H151.25V28.2188H156.734V26.0781H152.75V21.2969H160.797V19.7344H152.734V18.1406H162.766V22.8594H154.75V24.4531H163.094V26.0781H158.719V28.2188H164.266V29.8594ZM181.094 31.4375H179.219V17.2188H181.094V31.4375ZM168.547 27.0781C169.964 26.2448 171.018 25.2995 171.711 24.2422C172.409 23.1797 172.828 21.9375 172.969 20.5156H169.375V18.9062H174.953C174.953 19.599 174.909 20.2865 174.82 20.9688H176.234V17.5312H178.125V30.8125H176.234V26.125H174.219V24.5156H176.234V22.5781H174.492C174.148 23.7917 173.589 24.888 172.812 25.8672C172.042 26.8411 171.01 27.7135 169.719 28.4844L168.547 27.0781ZM195.562 25.7344H182.594V24.1406H188.078V22.25H190.047V24.1406H195.562V25.7344ZM183.266 21.5469C184.276 21.4167 185.141 21.1693 185.859 20.8047C186.578 20.4401 187.12 20.0052 187.484 19.5C187.854 18.9948 188.042 18.4688 188.047 17.9219V17.4531H190.078V17.9219C190.073 18.4896 190.25 19.026 190.609 19.5312C190.974 20.0312 191.516 20.4609 192.234 20.8203C192.958 21.1745 193.839 21.4167 194.875 21.5469L194.109 23.0938C192.917 22.9167 191.885 22.5885 191.016 22.1094C190.151 21.625 189.492 21.0234 189.039 20.3047C188.581 21.0234 187.917 21.625 187.047 22.1094C186.177 22.5938 185.151 22.9219 183.969 23.0938L183.266 21.5469ZM184.031 26.7344H193.984V31.4375H192V28.2812H184.031V26.7344ZM207.641 22.7812H209.734V24.4219H207.641V31.4375H205.672V17.2188H207.641V22.7812ZM196.344 19.3438H199.562V17.4375H201.562V19.3438H204.703V20.9375H196.344V19.3438ZM196.922 25.125C196.922 24.474 197.078 23.8906 197.391 23.375C197.703 22.8594 198.135 22.4583 198.688 22.1719C199.245 21.8802 199.87 21.7344 200.562 21.7344C201.245 21.7344 201.862 21.8802 202.414 22.1719C202.966 22.4583 203.398 22.8594 203.711 23.375C204.029 23.8906 204.188 24.474 204.188 25.125C204.188 25.776 204.029 26.3594 203.711 26.875C203.398 27.3854 202.966 27.7865 202.414 28.0781C201.862 28.3698 201.245 28.5156 200.562 28.5156C199.87 28.5156 199.245 28.3698 198.688 28.0781C198.135 27.7865 197.703 27.3854 197.391 26.875C197.078 26.3594 196.922 25.776 196.922 25.125ZM198.828 25.125C198.828 25.4844 198.901 25.7969 199.047 26.0625C199.198 26.3281 199.404 26.5312 199.664 26.6719C199.924 26.8125 200.224 26.8802 200.562 26.875C200.896 26.8802 201.193 26.8125 201.453 26.6719C201.714 26.5312 201.917 26.3281 202.062 26.0625C202.208 25.7969 202.281 25.4844 202.281 25.125C202.281 24.7656 202.208 24.4531 202.062 24.1875C201.917 23.9219 201.714 23.7161 201.453 23.5703C201.193 23.4245 200.896 23.349 200.562 23.3438C200.224 23.349 199.924 23.4245 199.664 23.5703C199.404 23.7161 199.198 23.9219 199.047 24.1875C198.901 24.4531 198.828 24.7656 198.828 25.125ZM222.203 31.4375H220.188V17.2188H222.203V31.4375ZM210.297 27.4062C211.51 26.8333 212.51 26.1953 213.297 25.4922C214.089 24.7891 214.693 24.0104 215.109 23.1562C215.531 22.2969 215.797 21.3333 215.906 20.2656H211.062V18.7031H217.938C217.932 20.224 217.727 21.6068 217.32 22.8516C216.914 24.0964 216.224 25.2396 215.25 26.2812C214.281 27.3229 212.979 28.2292 211.344 29L210.297 27.4062Z" fill="black"/>
</svg>
