<svg width="323" height="87" viewBox="0 0 323 87" fill="none" xmlns="http://www.w3.org/2000/svg">
<path d="M0.860352 0.0419922H39.1562V17.4443H23.4727V33.9336H37.4375V50.4766H23.4727V87H0.860352V0.0419922ZM44.6885 0.0419922H60.6943C71.3649 0.0419922 78.5801 0.453776 82.3398 1.27734C86.1354 2.10091 89.2148 4.21354 91.5781 7.61523C93.9772 10.9811 95.1768 16.3701 95.1768 23.7822C95.1768 30.5498 94.3353 35.0973 92.6523 37.4248C90.9694 39.7523 87.6572 41.1488 82.7158 41.6143C87.1917 42.7243 90.1995 44.2103 91.7393 46.0723C93.279 47.9342 94.2279 49.653 94.5859 51.2285C94.9798 52.7682 95.1768 57.0472 95.1768 64.0654V87H74.1758V58.1035C74.1758 53.4486 73.7998 50.5661 73.0479 49.4561C72.3317 48.346 70.416 47.791 67.3008 47.791V87H44.6885V0.0419922ZM67.3008 14.9199V34.2559C69.8431 34.2559 71.6156 33.9157 72.6182 33.2354C73.6566 32.5192 74.1758 30.2454 74.1758 26.4141V21.6338C74.1758 18.8766 73.6745 17.0684 72.6719 16.209C71.7051 15.3496 69.9147 14.9199 67.3008 14.9199ZM143.033 0.0419922L155.978 87H132.828L131.7 71.3701H123.59L122.247 87H98.8291L110.323 0.0419922H143.033ZM131.056 55.9551C129.91 46.1081 128.764 33.9515 127.618 19.4854C125.326 36.0999 123.894 48.2565 123.321 55.9551H131.056ZM229.615 0.0419922V87H209.85V28.2939L201.954 87H187.936L179.61 29.6367V87H159.845V0.0419922H189.117C189.977 5.26986 190.89 11.4287 191.856 18.5186L194.972 40.6475L200.128 0.0419922H229.615ZM238.692 0.0419922H276.397V17.4443H261.305V33.9336H275.431V50.4766H261.305V69.5977H277.901V87H238.692V0.0419922ZM322.267 0.0419922V17.4443L305.401 69.5977H322.267V87H280.587V74.3779L297.989 17.4443H282.628V0.0419922H322.267Z" fill="black"/>
</svg>
