<svg width="462" height="89" viewBox="0 0 462 89" fill="none" xmlns="http://www.w3.org/2000/svg">
<path d="M61.194 56.5543H28.503L22.8497 88.9995H0.605091L16.2132 0.512595H77.9082L74.4671 19.6848H34.8938L31.8213 37.3821H64.5123L61.194 56.5543ZM119.64 0.512595C128.98 0.512595 135.617 2.5609 139.55 6.65752C142.499 9.77095 143.974 13.7037 143.974 18.4558C143.974 20.0944 143.81 21.815 143.482 23.6175L141.762 33.2036C140.779 38.5292 139.058 42.8306 136.6 46.1079C134.224 49.3852 131.561 51.7203 128.612 53.1131L139.795 88.9995H114.97L104.646 55.9398H97.0266L91.9878 88.9995H68.3913L83.9994 0.512595H119.64ZM111.897 19.6848H102.68L99.4846 41.0691H108.087C112.43 41.0691 115.543 40.0449 117.428 37.9966C119.312 35.8664 120.254 33.0807 120.254 29.6395C120.254 23.003 117.469 19.6848 111.897 19.6848ZM186.65 88.9995L187.388 69.7044H166.864L160.842 88.9995H137.368L168.953 0.512595H209.509L210.001 88.9995H186.65ZM181.612 22.0198L171.903 53.236H188.002L189.354 22.0198H181.612ZM254.198 0.512595L267.349 42.9126L295.615 0.512595H318.843L303.235 88.9995H280.99L289.839 39.1027L270.913 68.8442H254.813L246.456 39.1027L237.607 88.9995H215.485L231.094 0.512595H254.198ZM376.291 88.9995H314.596L330.204 0.512595H391.899L388.458 19.6848H348.885L346.058 36.2761H378.749L375.308 55.4482H342.617L340.159 69.8273H379.733L376.291 88.9995ZM445.875 88.9995H381.107L384.549 69.8273H384.672L432.233 19.6848H393.274L396.716 0.512595H461.606L458.165 19.6848L410.603 69.8273H449.316L445.875 88.9995Z" fill="black"/>
</svg>
