<svg width="433" height="71" viewBox="0 0 433 71" fill="none" xmlns="http://www.w3.org/2000/svg">
<path d="M430.974 69.0525H391.194C387.774 69.0525 384.804 68.6925 382.284 67.8825C379.764 67.0725 377.784 65.9925 376.164 64.6425C374.544 63.2925 373.374 61.6725 372.654 59.8725C371.844 58.0725 371.484 56.1825 371.484 54.2025C371.484 50.3325 372.654 46.9125 374.994 43.8525C377.334 40.8825 381.024 38.0025 385.884 35.2125L412.164 20.6325C412.704 20.3625 413.154 20.0025 413.424 19.6425C413.604 19.2825 413.784 18.9225 413.784 18.3825C413.784 17.8425 413.514 17.3025 413.064 16.9425C412.614 16.5825 411.894 16.4025 410.994 16.4025H364.024V1.55249H410.904C418.644 1.55249 424.134 2.72249 427.374 5.06249C430.614 7.40249 432.234 10.9125 432.234 15.7725C432.234 18.9225 431.244 21.9825 429.264 25.0425C427.284 28.1025 423.954 30.9825 419.274 33.6825L391.914 49.2525C391.194 49.7025 390.654 50.0625 390.294 50.4225C389.934 50.7825 389.754 51.3225 389.754 52.0425C389.754 52.8525 390.024 53.3925 390.564 53.7525C391.104 54.1125 391.824 54.2025 392.814 54.2025H430.974V69.0525Z" fill="black"/>
<path d="M309.033 69.0525V1.55249H365.373V16.4025H326.583V28.1025H365.373V42.5025H326.583V54.2025H365.373V69.0525H309.033Z" fill="black"/>
<path d="M207.703 69.0524L211.933 20.8124C212.473 13.6124 214.453 8.48241 217.783 5.24241C221.113 2.09241 225.343 0.472412 230.473 0.472412C235.873 0.472412 240.193 2.18241 243.433 5.51241C246.673 8.84241 248.743 13.3424 249.643 19.1024L254.953 52.6724C255.043 53.3924 255.223 53.9324 255.493 54.2924C255.763 54.6524 256.213 54.8324 256.843 54.8324C257.383 54.8324 257.833 54.6524 258.193 54.2024C258.463 53.8424 258.643 53.2124 258.733 52.4924L263.863 19.0124C264.673 13.3424 266.653 8.84241 269.893 5.51241C273.133 2.18241 277.453 0.472412 282.853 0.472412C288.523 0.472412 292.753 2.09241 295.543 5.33241C298.333 8.57241 300.043 13.7024 300.673 20.8124L304.903 69.0524H287.533L283.933 18.2024C283.843 17.6624 283.753 17.1224 283.573 16.6724C283.393 16.3124 283.033 16.0424 282.493 16.0424C281.953 16.0424 281.593 16.3124 281.323 16.6724C280.963 17.0324 280.783 17.4824 280.783 18.0224L274.753 54.1124C273.943 58.9724 271.963 62.8424 268.903 65.7224C265.843 68.6924 261.793 70.1324 256.753 70.1324C251.533 70.1324 247.303 68.6924 244.243 65.6324C241.093 62.5724 239.113 58.7024 238.393 54.0224L232.093 18.1124C231.913 17.4824 231.733 16.9424 231.463 16.5824C231.103 16.2224 230.743 16.0424 230.293 16.0424C229.663 16.0424 229.213 16.3124 229.033 16.6724C228.853 17.1224 228.673 17.6624 228.673 18.2924L225.073 69.0524H207.703Z" fill="black"/>
<path d="M184.536 69.0524L179.226 54.9224H147.636L142.236 69.0524H124.056L146.466 14.6024C148.176 10.3724 150.336 6.95241 152.856 4.34241C155.376 1.82241 158.976 0.472412 163.476 0.472412C168.156 0.472412 171.756 1.82241 174.456 4.34241C177.156 6.86241 179.316 10.2824 181.026 14.4224L203.256 69.0524H184.536ZM161.946 17.8424L153.036 40.9724H173.916L165.186 17.8424C165.006 17.4824 164.736 17.1224 164.556 16.7624C164.376 16.4024 164.016 16.2224 163.566 16.2224C163.116 16.2224 162.756 16.4024 162.576 16.6724C162.306 17.0324 162.126 17.3924 161.946 17.8424Z" fill="black"/>
<path d="M74.5714 69.0525H57.4714V34.3925C57.4714 32.7725 58.0114 31.4225 59.0914 30.3425C60.1714 29.3525 61.4314 28.8125 62.9614 28.8125H96.5314C98.9614 28.8125 100.671 28.4525 101.571 27.6425C102.471 26.9225 103.011 26.1225 103.011 23.2425V22.7925C103.011 20.1825 102.471 18.4725 101.571 17.6625C100.671 16.8525 98.9614 16.4025 96.5314 16.4025H39.4714V1.55249H96.0814C99.3214 1.55249 102.471 1.82249 105.531 2.36249C108.501 2.9025 111.111 3.89249 113.271 5.15249C115.431 6.50249 117.231 8.30249 118.581 10.5525C119.841 12.8025 120.561 15.5925 120.561 19.0125V23.2425C120.561 26.8425 119.931 28.9025 118.851 31.2425C117.681 33.5825 116.061 35.4725 113.991 36.8225C111.921 38.2625 109.401 39.2525 106.431 39.7925C103.371 40.3325 100.131 40.6025 96.5314 40.6025H95.5414L120.471 69.0525H99.4114L74.5714 40.9625V69.0525Z" fill="black"/>
<path d="M-0.00146484 69.0525V1.55249H55.1885V16.4025H17.9985V28.8225H49.1885V43.6725H17.9985V69.0525H-0.00146484Z" fill="black"/>
</svg>
