<svg width="542" height="77" viewBox="0 0 542 77" fill="none" xmlns="http://www.w3.org/2000/svg">
<path d="M0.23297 76.9453V0.966453H71.4179V19.9612H24.112V31.9007H63.4582V48.7246H24.112V76.9453H0.23297ZM78.4943 76.9453V0.966453H128.785C146.966 0.966453 158.815 10.2829 158.815 24.4837C158.815 34.976 152.393 42.7548 142.986 44.9257C146.875 46.9156 149.951 49.7196 151.941 53.5185L164.061 76.9453H138.282L127.881 56.6843C125.619 52.3426 123.087 51.2572 114.856 51.2572H102.373V76.9453H78.4943ZM102.373 35.5187H124.805C131.318 35.5187 134.936 32.8052 134.936 27.9209C134.936 23.2174 131.137 20.5039 124.805 20.5039H102.373V35.5187ZM166.786 76.9453L197.449 0.966453H236.253L266.916 76.9453H241.409L235.077 60.4832H198.535L192.203 76.9453H166.786ZM205.319 42.9357H228.293L219.519 20.323H214.092L205.319 42.9357ZM272.381 76.9453V0.966453H305.124L325.204 36.966L344.38 0.966453H377.123V76.9453H353.787V26.2927L333.707 65.9103H316.883L295.717 25.4787V76.9453H272.381ZM388.006 76.9453V0.966453H459.734V19.9612H411.885V29.7299H451.593V46.5538H411.885V57.9506H459.734V76.9453H388.006ZM466.755 20.5039V0.966453H541.287V20.5039H541.016L498.232 57.4079H541.287V76.9453H466.755V57.4079L509.539 20.5039H466.755Z" fill="black"/>
</svg>
