<svg width="442" height="91" viewBox="0 0 442 91" fill="none" xmlns="http://www.w3.org/2000/svg">
<path d="M441.374 0.310547L403.48 68.523H429.594L423.912 90.3101H364.124L403.659 21.4949H376.996L380.896 0.310547H441.374Z" fill="black"/>
<path d="M370.862 0.311035L368.163 21.4953H340.972L339.353 34.5837H364.965L362.402 54.9585H336.479L334.724 68.7215H361.025L358.461 90.3106H310.37L321.434 0.311035H370.862Z" fill="black"/>
<path d="M307.055 0.311035L303.735 90.3106H278.327L284.386 32.9646L265.603 90.3106H246.483L246.47 32.9646C246.47 32.9646 238.927 71.2852 235.554 90.3106H210.362L232.572 0.311035H263.283L262.581 48.2119L278.396 0.311035H307.055Z" fill="black"/>
<path d="M71.7414 0.311035L69.1777 21.4953H33.01L31.3908 34.5837H66.3441L63.7804 54.9585H28.962L24.5093 90.3106H0.626343L11.6908 0.311035H71.7414Z" fill="black"/>
<path fill-rule="evenodd" clip-rule="evenodd" d="M204.693 90.3106H180L179.887 79.461H163.371L160.165 90.3106H135.338L167.722 0.311035H197.002L204.693 90.3106ZM168.857 60.894H179.694L179.326 25.4635L168.857 60.894Z" fill="black"/>
<path fill-rule="evenodd" clip-rule="evenodd" d="M110.61 0.353229L77.9117 0.311035L66.8473 90.3106H90.7303L95.048 52.9344L103.954 90.3106H129.86L116.853 53.5436C128.276 50.2295 136.615 39.814 136.615 27.4779C136.615 12.9864 125.169 0.353229 110.61 0.353229Z" fill="black"/>
<path fill-rule="evenodd" clip-rule="evenodd" d="M96.6667 40.6199C96.7508 40.6209 96.8351 40.6213 96.9196 40.6213C106.111 40.6213 113.561 33.6233 113.561 26.8411C113.561 20.7554 107.562 16.9114 99.6899 16.186L96.6667 40.6199Z" fill="white"/>
</svg>
