<svg width="461" height="99" viewBox="0 0 461 99" fill="none" xmlns="http://www.w3.org/2000/svg">
<path d="M65.9548 61.6909H30.5396L24.4151 96.8398H0.31677L17.2256 0.979018H84.0618L80.3339 21.7489H37.4628L34.1343 40.921H69.5496L65.9548 61.6909ZM138.724 46.3798C138.724 49.3976 138.192 52.3267 137.126 55.167C136.15 58.0073 135.174 60.0932 134.197 61.4246L132.733 63.2886H112.629C114.848 61.2471 115.957 58.7174 115.957 55.6996C115.957 54.1019 115.425 52.8149 114.36 51.8385C113.383 50.7734 112.007 50.2408 110.232 50.2408C107.214 50.2408 104.596 51.7498 102.377 54.7676L94.9211 96.8398H72.2873L83.6042 32.7995H104.64L103.043 41.7199C108.102 34.5303 114.226 30.9355 121.416 30.9355C127.185 30.9355 131.49 32.3113 134.331 35.0629C137.26 37.8144 138.724 41.5867 138.724 46.3798ZM198.327 76.3363C198.327 78.644 199.481 79.7979 201.789 79.7979C204.185 79.7979 206.182 79.3541 207.78 78.4665L207.114 93.5113C202.854 96.973 198.061 98.7038 192.735 98.7038C182.972 98.7038 177.557 95.1534 176.492 88.0526C172.054 95.1534 165.53 98.7038 156.921 98.7038C142.364 98.7038 135.086 92.4462 135.086 79.9311C135.086 77.8008 135.308 75.4487 135.751 72.8746L138.547 57.2973C139.967 49.3088 143.207 42.9625 148.267 38.2582C153.415 33.4652 160.072 31.0687 168.238 31.0687C176.492 31.0687 182.084 32.977 185.013 36.7937L185.679 32.7995H205.916L198.46 74.7386C198.372 75.2712 198.327 75.8037 198.327 76.3363ZM158.918 69.9456C158.74 70.7444 158.651 71.8539 158.651 73.2741C158.651 74.6942 159.317 76.1144 160.649 77.5345C161.98 78.8659 164.199 79.5316 167.306 79.5316C170.501 79.5316 173.252 78.289 175.56 75.8037L179.554 53.4362C178.578 51.2172 176.27 50.1077 172.631 50.1077C165.797 50.1077 161.802 53.3918 160.649 59.9601L158.918 69.9456ZM319.56 79.7979C321.601 79.7979 323.421 79.3541 325.018 78.4665L324.353 93.5113C320.181 96.973 315.432 98.7038 310.107 98.7038C298.035 98.7038 292 93.6445 292 83.5258C292 81.7506 292.177 79.8423 292.532 77.8008L295.328 61.4246C295.594 59.8269 295.727 58.2292 295.727 56.6316C295.727 52.3711 293.375 50.2408 288.671 50.2408C284.056 50.2408 280.416 52.0604 277.754 55.6996L270.564 96.8398H247.93L254.188 61.4246C254.454 59.8269 254.587 58.2292 254.587 56.6316C254.587 52.3711 252.191 50.2408 247.398 50.2408C243.581 50.2408 240.297 51.7054 237.545 54.6345L230.089 96.8398H207.456L218.773 32.7995H239.809L238.344 40.7879C243.67 34.2196 250.415 30.9355 258.581 30.9355C270.12 30.9355 276.688 34.7522 278.286 42.3856C283.612 34.7522 290.713 30.9355 299.589 30.9355C308.553 30.9355 314.367 32.9326 317.03 36.9268C318.805 39.6784 319.693 42.6962 319.693 45.9803C319.693 49.2645 319.471 52.2379 319.027 54.9007L315.698 74.7386C315.61 75.2712 315.565 75.7593 315.565 76.2031C315.565 78.5997 316.897 79.7979 319.56 79.7979ZM353.075 98.7038C334.613 98.7038 325.382 92.3131 325.382 79.5316C325.382 77.7564 325.56 75.8481 325.915 73.8066L328.711 57.2973C330.22 48.7763 334.125 42.2524 340.427 37.7257C346.818 33.1101 355.25 30.8024 365.724 30.8024C383.565 30.8024 392.485 37.5481 392.485 51.0397C392.485 52.9924 392.307 55.1226 391.952 57.4304L390.355 66.8833H349.747L349.214 69.9456C349.037 71.0107 348.948 71.987 348.948 72.8746C348.948 77.7564 351.833 80.1973 357.602 80.1973C359.732 80.1973 361.552 79.5316 363.061 78.2002C364.57 76.8688 365.457 75.3155 365.724 73.5403L387.825 73.8066C384.896 90.4047 373.313 98.7038 353.075 98.7038ZM369.052 58.7618C369.407 57.2529 369.585 55.8771 369.585 54.6345C369.585 53.3031 369.008 51.9717 367.854 50.6403C366.7 49.3089 364.836 48.6432 362.262 48.6432C359.777 48.6432 357.469 49.4864 355.339 51.1728C353.297 52.8593 351.877 55.3889 351.078 58.7618H369.052ZM449.037 96.8398H389.257L392.586 78.2002L430.131 51.4391H397.246L400.574 32.7995H460.354L457.026 51.4391L420.678 78.2002H452.366L449.037 96.8398Z" fill="black"/>
</svg>
