<svg width="436" height="71" viewBox="0 0 436 71" fill="none" xmlns="http://www.w3.org/2000/svg">
<path d="M206.887 70.071L211.825 20.5103C212.366 13.2752 214.348 8.12014 217.681 4.86432C221.014 1.69895 225.249 0.0710449 230.384 0.0710449C235.789 0.0710449 240.113 1.78939 243.356 5.13564C246.6 8.4819 248.672 13.0039 249.573 18.792L254.888 52.5258C254.978 53.2493 255.158 53.792 255.428 54.1537C255.699 54.5155 256.149 54.6964 256.78 54.6964C257.32 54.6964 257.771 54.5155 258.131 54.0633C258.401 53.7015 258.581 53.0685 258.672 52.3449L263.807 18.7015C264.617 13.0039 266.599 8.4819 269.843 5.13564C273.086 1.78939 277.41 0.0710449 282.815 0.0710449C288.491 0.0710449 292.725 1.69895 295.518 4.95477C298.311 8.21058 300.022 13.3656 300.653 20.5103L305.887 70.071H288.5L283.896 17.8876C283.806 17.3449 283.716 16.8023 283.536 16.3501C283.356 15.9884 282.995 15.717 282.455 15.717C281.914 15.717 281.554 15.9884 281.284 16.3501C280.923 16.7119 280.743 17.1641 280.743 17.7067L274.707 53.9729C273.897 58.8566 271.915 62.7455 268.852 65.6395C265.789 68.624 261.735 70.071 256.69 70.071C251.464 70.071 247.23 68.624 244.167 65.5491C241.014 62.4741 239.032 58.5853 238.311 53.8824L232.005 17.7971C231.825 17.1641 231.645 16.6214 231.375 16.2597C231.014 15.8979 230.654 15.717 230.204 15.717C229.573 15.717 229.122 15.9884 228.942 16.3501C228.762 16.8023 228.582 17.3449 228.582 17.978L224.274 70.071H206.887Z" fill="white"/>
<path d="M182.214 70.071L176.918 55.8545H145.407L140.021 70.071H121.887L144.24 15.2876C145.946 11.0317 148.101 7.59073 150.614 4.96474C153.128 2.42931 156.719 1.07104 161.207 1.07104C165.876 1.07104 169.467 2.42931 172.16 4.96474C174.853 7.50018 177.007 10.9411 178.713 15.1065L200.887 70.071H182.214ZM159.681 18.5474L150.794 41.8191H171.621L162.913 18.5474C162.734 18.1852 162.464 17.823 162.285 17.4608C162.105 17.0986 161.746 16.9175 161.297 16.9175C160.848 16.9175 160.489 17.0986 160.31 17.3703C160.04 17.7325 159.861 18.0947 159.681 18.5474Z" fill="white"/>
<path d="M421.59 2.04663H372.018V2.07104H312.887V70.571H364.37V55.571H330.887V44.071H364.37V29.071H330.887V17.071L409.859 17.0466C410.776 17.0466 411.209 18.1771 410.528 18.7901L375.254 50.5213C367.417 57.571 372.404 70.571 382.945 70.571H435.018V55.571H394.676C393.759 55.571 393.326 54.4406 394.007 53.8276L429.281 22.0963C437.118 15.0467 432.131 2.04663 421.59 2.04663Z" fill="white"/>
<path d="M0.886963 2.07104V70.071H18.887V44.071H48.887V29.071H18.887V17.071H94.887C98.2007 17.071 100.887 19.7573 100.887 23.071C100.887 26.3848 98.2007 29.071 94.887 29.071H57.887V70.071H75.887V45.0155L97.887 70.071H118.887L95.4176 44.0645C106.77 43.7829 115.887 34.4916 115.887 23.071C115.887 11.4731 106.485 2.07104 94.887 2.07104H0.886963Z" fill="white"/>
</svg>
