<svg width="436" height="72" viewBox="0 0 436 72" fill="none" xmlns="http://www.w3.org/2000/svg">
<path d="M206.887 70.75L211.825 21.1893C212.366 13.9541 214.348 8.79909 217.681 5.54328C221.014 2.37791 225.249 0.75 230.384 0.75C235.789 0.75 240.113 2.46835 243.356 5.8146C246.6 9.16085 248.672 13.6828 249.573 19.4709L254.888 53.2048C254.978 53.9283 255.158 54.4709 255.428 54.8327C255.699 55.1944 256.149 55.3753 256.78 55.3753C257.32 55.3753 257.771 55.1944 258.131 54.7422C258.401 54.3805 258.581 53.7474 258.672 53.0239L263.807 19.3805C264.617 13.6828 266.599 9.16085 269.843 5.8146C273.086 2.46835 277.41 0.75 282.815 0.75C288.491 0.75 292.725 2.37791 295.518 5.63372C298.311 8.88953 300.022 14.0446 300.653 21.1893L305.887 70.75H288.5L283.896 18.5665C283.806 18.0239 283.716 17.4813 283.536 17.0291C283.356 16.6673 282.995 16.396 282.455 16.396C281.914 16.396 281.554 16.6673 281.284 17.0291C280.923 17.3908 280.743 17.843 280.743 18.3857L274.707 54.6518C273.897 59.5355 271.915 63.4244 268.852 66.3185C265.789 69.303 261.735 70.75 256.69 70.75C251.464 70.75 247.23 69.303 244.167 66.228C241.014 63.1531 239.032 59.2642 238.311 54.5614L232.005 18.4761C231.825 17.843 231.645 17.3004 231.375 16.9386C231.014 16.5769 230.654 16.396 230.204 16.396C229.573 16.396 229.122 16.6673 228.942 17.0291C228.762 17.4813 228.582 18.0239 228.582 18.657L224.274 70.75H206.887Z" fill="#1A6EFF"/>
<path d="M182.214 70.75L176.918 56.5335H145.407L140.021 70.75H121.887L144.24 15.9665C145.946 11.7106 148.101 8.26968 150.614 5.6437C153.128 3.10827 156.719 1.75 161.207 1.75C165.876 1.75 169.467 3.10827 172.16 5.6437C174.853 8.17913 177.007 11.6201 178.713 15.7854L200.887 70.75H182.214ZM159.681 19.2264L150.794 42.498H171.621L162.913 19.2264C162.734 18.8642 162.464 18.502 162.285 18.1398C162.105 17.7776 161.746 17.5965 161.297 17.5965C160.848 17.5965 160.489 17.7776 160.31 18.0492C160.04 18.4114 159.861 18.7736 159.681 19.2264Z" fill="#1A6EFF"/>
<path d="M421.59 2.72559H372.018V2.75H312.887V71.25H364.37V56.25H330.887V44.75H364.37V29.75H330.887V17.75L409.859 17.7256C410.776 17.7256 411.209 18.856 410.528 19.469L375.254 51.2003C367.417 58.2499 372.404 71.25 382.945 71.25H435.018V56.25H394.676C393.759 56.25 393.326 55.1196 394.007 54.5065L429.281 22.7753C437.118 15.7256 432.131 2.72559 421.59 2.72559Z" fill="#1A6EFF"/>
<path d="M0.886963 2.75V70.75H18.887V44.75H48.887V29.75H18.887V17.75H94.887C98.2007 17.75 100.887 20.4363 100.887 23.75C100.887 27.0637 98.2007 29.75 94.887 29.75H57.887V70.75H75.887V45.6944L97.887 70.75H118.887L95.4176 44.7434C106.77 44.4618 115.887 35.1706 115.887 23.75C115.887 12.152 106.485 2.75 94.887 2.75H0.886963Z" fill="#1A6EFF"/>
</svg>
