<svg width="436" height="70" viewBox="0 0 436 70" fill="none" xmlns="http://www.w3.org/2000/svg">
<path d="M433.975 68.5801H394.195C390.775 68.5801 387.805 68.2201 385.285 67.4101C382.765 66.6001 380.785 65.5201 379.165 64.1701C377.545 62.8201 376.376 61.2001 375.656 59.4001C374.846 57.6001 374.485 55.7101 374.485 53.7301C374.485 49.8601 375.656 46.4401 377.996 43.3801C380.336 40.4101 384.025 37.5301 388.885 34.7401L415.165 20.1601C415.705 19.8901 416.156 19.5301 416.426 19.1701C416.606 18.8101 416.785 18.4501 416.785 17.9101C416.785 17.3701 416.516 16.8301 416.066 16.4701C415.616 16.1101 414.896 15.9301 413.996 15.9301H367.025V1.08008H413.906C421.646 1.08008 427.136 2.25008 430.376 4.59008C433.616 6.93008 435.236 10.4401 435.236 15.3001C435.236 18.4501 434.246 21.5101 432.266 24.5701C430.286 27.6301 426.956 30.5101 422.276 33.2101L394.915 48.7801C394.195 49.2301 393.655 49.5901 393.295 49.9501C392.935 50.3101 392.755 50.8501 392.755 51.5701C392.755 52.3801 393.026 52.9201 393.566 53.2801C394.106 53.6401 394.826 53.7301 395.816 53.7301H433.975V68.5801Z" fill="white"/>
<path d="M312.034 68.5801V1.08008H368.374V15.9301H329.584V27.6301H368.374V42.0301H329.584V53.7301H368.374V68.5801H312.034Z" fill="white"/>
<path d="M207.705 68.58L211.935 20.34C212.475 13.14 214.455 8.01 217.785 4.77C221.115 1.62 225.345 0 230.475 0C235.875 0 240.195 1.71 243.435 5.04C246.675 8.37 248.745 12.87 249.645 18.63L254.955 52.2C255.045 52.92 255.225 53.46 255.495 53.82C255.765 54.18 256.215 54.36 256.845 54.36C257.385 54.36 257.835 54.18 258.195 53.73C258.465 53.37 258.645 52.74 258.735 52.02L263.865 18.54C264.675 12.87 266.655 8.37 269.895 5.04C273.135 1.71 277.455 0 282.855 0C288.525 0 292.755 1.62 295.545 4.86C298.335 8.1 300.045 13.23 300.675 20.34L304.905 68.58H287.535L283.935 17.73C283.845 17.19 283.755 16.65 283.575 16.2C283.395 15.84 283.035 15.57 282.495 15.57C281.955 15.57 281.595 15.84 281.325 16.2C280.965 16.56 280.785 17.01 280.785 17.55L274.755 53.64C273.945 58.5 271.965 62.37 268.905 65.25C265.845 68.22 261.795 69.66 256.755 69.66C251.535 69.66 247.305 68.22 244.245 65.16C241.095 62.1 239.115 58.23 238.395 53.55L232.095 17.64C231.915 17.01 231.735 16.47 231.465 16.11C231.105 15.75 230.745 15.57 230.295 15.57C229.665 15.57 229.215 15.84 229.035 16.2C228.855 16.65 228.675 17.19 228.675 17.82L225.075 68.58H207.705Z" fill="white"/>
<path d="M184.537 68.58L179.227 54.45H147.637L142.237 68.58H124.057L146.467 14.13C148.177 9.9 150.337 6.48 152.857 3.87C155.377 1.35 158.977 0 163.477 0C168.157 0 171.757 1.35 174.457 3.87C177.157 6.39 179.317 9.81 181.027 13.95L203.257 68.58H184.537ZM161.947 17.37L153.037 40.5H173.917L165.187 17.37C165.007 17.01 164.737 16.65 164.557 16.29C164.377 15.93 164.017 15.75 163.567 15.75C163.117 15.75 162.757 15.93 162.577 16.2C162.307 16.56 162.127 16.92 161.947 17.37Z" fill="white"/>
<path d="M74.573 68.5801H57.473V33.9201C57.473 32.3001 58.013 30.9501 59.093 29.8701C60.173 28.8801 61.433 28.3401 62.963 28.3401H96.533C98.963 28.3401 100.673 27.9801 101.573 27.1701C102.473 26.4501 103.013 25.6501 103.013 22.7701V22.3201C103.013 19.7101 102.473 18.0001 101.573 17.1901C100.673 16.3801 98.963 15.9301 96.533 15.9301H39.473V1.08008H96.083C99.323 1.08008 102.473 1.35008 105.533 1.89008C108.503 2.43008 111.113 3.42008 113.273 4.68008C115.433 6.03008 117.233 7.83008 118.583 10.0801C119.843 12.3301 120.563 15.1201 120.563 18.5401V22.7701C120.563 26.3701 119.933 28.4301 118.853 30.7701C117.683 33.1101 116.063 35.0001 113.993 36.3501C111.923 37.7901 109.403 38.7801 106.433 39.3201C103.373 39.8601 100.133 40.1301 96.533 40.1301H95.543L120.473 68.5801H99.413L74.573 40.4901V68.5801Z" fill="white"/>
<path d="M0 68.5801V1.08008H55.19V15.9301H18V28.3501H49.19V43.2001H18V68.5801H0Z" fill="white"/>
</svg>
